<svg version="1.1" viewBox="0.0 0.0 487.4435695538058 411.1391076115486" fill="none" stroke="none" stroke-linecap="square" stroke-miterlimit="10" xmlns:xlink="http://www.w3.org/1999/xlink" xmlns="http://www.w3.org/2000/svg"><clipPath id="p.0"><path d="m0 0l487.44357 0l0 411.1391l-487.44357 0l0 -411.1391z" clip-rule="nonzero"/></clipPath><g clip-path="url(#p.0)"><path fill="#000000" fill-opacity="0.0" d="m0 0l487.44357 0l0 411.1391l-487.44357 0z" fill-rule="evenodd"/><path fill="#6aa84f" d="m61.68504 28.422573l146.4567 0l0 52.47244l-146.4567 0z" fill-rule="evenodd"/><path stroke="#274e13" stroke-width="2.0" stroke-linejoin="round" stroke-linecap="butt" d="m61.68504 28.422573l146.4567 0l0 52.47244l-146.4567 0z" fill-rule="evenodd"/><path fill="#ffffff" d="m126.771454 57.156918q-0.15625 2.140625 -1.578125 3.375q-1.421875 1.234375 -3.75 1.234375q-2.5625 0 -4.03125 -1.71875q-1.453125 -1.71875 -1.453125 -4.71875l0 -0.8125q0 -1.90625 0.671875 -3.359375q0.671875 -1.46875 1.921875 -2.25q1.265625 -0.78125 2.921875 -0.78125q2.296875 0 3.6875 1.234375q1.40625 1.234375 1.625 3.453125l-2.734375 0q-0.09375 -1.28125 -0.71875 -1.859375q-0.609375 -0.578125 -1.859375 -0.578125q-1.375 0 -2.046875 0.984375q-0.671875 0.96875 -0.703125 3.03125l0 1.0q0 2.15625 0.65625 3.15625q0.65625 0.984375 2.0625 0.984375q1.265625 0 1.875 -0.578125q0.625 -0.578125 0.71875 -1.796875l2.734375 0zm1.2067261 -0.59375q0 -1.46875 0.5625 -2.609375q0.578125 -1.15625 1.640625 -1.78125q1.0625 -0.625 2.453125 -0.625q2.0 0 3.265625 1.21875q1.265625 1.21875 1.40625 3.3125l0.015625 0.671875q0 2.265625 -1.265625 3.640625q-1.265625 1.375 -3.40625 1.375q-2.125 0 -3.40625 -1.359375q-1.265625 -1.375 -1.265625 -3.734375l0 -0.109375zm2.640625 0.1875q0 1.40625 0.53125 2.15625q0.53125 0.734375 1.515625 0.734375q0.953125 0 1.484375 -0.734375q0.546875 -0.734375 0.546875 -2.34375q0 -1.375 -0.546875 -2.125q-0.53125 -0.765625 -1.515625 -0.765625q-0.953125 0 -1.484375 0.75q-0.53125 0.75 -0.53125 2.328125zm13.861298 -2.5625q-0.53125 -0.0625 -0.9375 -0.0625q-1.5 0 -1.96875 1.0l0 6.453125l-2.625 0l0 -9.859375l2.484375 0l0.078125 1.171875q0.78125 -1.34375 2.1875 -1.34375q0.4375 0 0.828125 0.109375l-0.046875 2.53125zm5.6316223 7.578125q-2.171875 0 -3.53125 -1.328125q-1.359375 -1.34375 -1.359375 -3.546875l0 -0.265625q0 -1.484375 0.5625 -2.640625q0.578125 -1.171875 1.625 -1.796875q1.0625 -0.640625 2.40625 -0.640625q2.03125 0 3.1875 1.28125q1.15625 1.265625 1.15625 3.609375l0 1.0625l-6.265625 0q0.125 0.96875 0.765625 1.5625q0.640625 0.578125 1.625 0.578125q1.515625 0 2.375 -1.109375l1.296875 1.453125q-0.59375 0.84375 -1.609375 1.3125q-1.0 0.46875 -2.234375 0.46875zm-0.296875 -8.09375q-0.78125 0 -1.28125 0.53125q-0.484375 0.53125 -0.609375 1.515625l3.65625 0l0 -0.21875q-0.015625 -0.875 -0.484375 -1.34375q-0.453125 -0.484375 -1.28125 -0.484375z" fill-rule="nonzero"/><path fill="#3c78d8" d="m61.68504 166.8819l146.4567 0l0 68.12598l-146.4567 0z" fill-rule="evenodd"/><path stroke="#1c4587" stroke-width="2.0" stroke-linejoin="round" stroke-linecap="butt" d="m61.68504 166.8819l146.4567 0l0 68.12598l-146.4567 0z" fill-rule="evenodd"/><path fill="#fff2cc" d="m116.29776 205.13051l-4.796875 0l-0.90625 2.734375l-2.90625 0l4.9375 -13.265625l2.53125 0l4.96875 13.265625l-2.90625 0l-0.921875 -2.734375zm-4.046875 -2.21875l3.3125 0l-1.671875 -4.953125l-1.640625 4.953125zm8.521637 -0.046875q0 -2.3125 1.03125 -3.671875q1.046875 -1.359375 2.84375 -1.359375q1.4375 0 2.375 1.0625l0 -5.03125l2.640625 0l0 14.0l-2.375 0l-0.125 -1.046875q-0.984375 1.234375 -2.53125 1.234375q-1.75 0 -2.8125 -1.375q-1.046875 -1.375 -1.046875 -3.8125zm2.640625 0.1875q0 1.390625 0.484375 2.125q0.484375 0.734375 1.40625 0.734375q1.21875 0 1.71875 -1.03125l0 -3.890625q-0.5 -1.015625 -1.703125 -1.015625q-1.90625 0 -1.90625 3.078125zm7.8717346 -0.1875q0 -2.3125 1.03125 -3.671875q1.046875 -1.359375 2.84375 -1.359375q1.4375 0 2.375 1.0625l0 -5.03125l2.640625 0l0 14.0l-2.375 0l-0.125 -1.046875q-0.984375 1.234375 -2.53125 1.234375q-1.75 0 -2.8125 -1.375q-1.046875 -1.375 -1.046875 -3.8125zm2.640625 0.1875q0 1.390625 0.484375 2.125q0.484375 0.734375 1.40625 0.734375q1.21875 0 1.71875 -1.03125l0 -3.890625q-0.5 -1.015625 -1.703125 -1.015625q-1.90625 0 -1.90625 3.078125zm7.8717346 -0.203125q0 -1.46875 0.5625 -2.609375q0.578125 -1.15625 1.640625 -1.78125q1.0625 -0.625 2.453125 -0.625q2.0 0 3.265625 1.21875q1.265625 1.21875 1.40625 3.3125l0.015625 0.671875q0 2.265625 -1.265625 3.640625q-1.265625 1.375 -3.40625 1.375q-2.125 0 -3.40625 -1.359375q-1.265625 -1.375 -1.265625 -3.734375l0 -0.109375zm2.640625 0.1875q0 1.40625 0.53125 2.15625q0.53125 0.734375 1.515625 0.734375q0.953125 0 1.484375 -0.734375q0.546875 -0.734375 0.546875 -2.34375q0 -1.375 -0.546875 -2.125q-0.53125 -0.765625 -1.515625 -0.765625q-0.953125 0 -1.484375 0.75q-0.53125 0.75 -0.53125 2.328125zm10.751923 -5.03125l0.078125 1.140625q1.0625 -1.3125 2.828125 -1.3125q1.578125 0 2.34375 0.921875q0.765625 0.90625 0.78125 2.734375l0 6.375l-2.640625 0l0 -6.296875q0 -0.84375 -0.359375 -1.21875q-0.359375 -0.375 -1.21875 -0.375q-1.109375 0 -1.65625 0.9375l0 6.953125l-2.640625 0l0 -9.859375l2.484375 0z" fill-rule="nonzero"/><path fill="#000000" fill-opacity="0.0" d="m134.91339 80.89501l0 85.98426" fill-rule="evenodd"/><path stroke="#434343" stroke-width="2.0" stroke-linejoin="round" stroke-linecap="butt" d="m134.91339 92.89501l0 61.98426" fill-rule="evenodd"/><path fill="#434343" stroke="#434343" stroke-width="2.0" stroke-linecap="butt" d="m138.21686 92.89501l-3.3034668 -9.076195l-3.3034668 9.076195z" fill-rule="evenodd"/><path fill="#434343" stroke="#434343" stroke-width="2.0" stroke-linecap="butt" d="m131.60992 154.87927l3.3034668 9.076187l3.3034668 -9.076187z" fill-rule="evenodd"/><path fill="#000000" fill-opacity="0.0" d="m300.6378 33.583134l0 0c0 -2.8508244 2.3110657 -5.161875 5.1618958 -5.161875l160.4479 0c1.368988 0 2.6819458 0.5438385 3.649994 1.511879c0.9680176 0.96803856 1.5118713 2.280981 1.5118713 3.6499958l0 144.03847c0 2.8508148 -2.3110657 5.161865 -5.161865 5.161865l-160.4479 0c-2.85083 0 -5.1618958 -2.3110504 -5.1618958 -5.161865z" fill-rule="evenodd"/><path stroke="#434343" stroke-width="2.0" stroke-linejoin="round" stroke-linecap="butt" d="m300.6378 33.583134l0 0c0 -2.8508244 2.3110657 -5.161875 5.1618958 -5.161875l160.4479 0c1.368988 0 2.6819458 0.5438385 3.649994 1.511879c0.9680176 0.96803856 1.5118713 2.280981 1.5118713 3.6499958l0 144.03847c0 2.8508148 -2.3110657 5.161865 -5.161865 5.161865l-160.4479 0c-2.85083 0 -5.1618958 -2.3110504 -5.1618958 -5.161865z" fill-rule="evenodd"/><path fill="#a4c2f4" d="m315.6614 39.793964l140.72443 0l0 23.937008l-140.72443 0z" fill-rule="evenodd"/><path stroke="#1c4587" stroke-width="2.0" stroke-linejoin="round" stroke-linecap="butt" d="m315.6614 39.793964l140.72443 0l0 23.937008l-140.72443 0z" fill-rule="evenodd"/><path fill="#1c4587" d="m329.19266 54.60934q0 -0.34375 -0.34375 -0.53125q-0.328125 -0.203125 -1.09375 -0.359375q-2.515625 -0.53125 -2.515625 -2.140625q0 -0.9375 0.78125 -1.5625q0.78125 -0.625 2.03125 -0.625q1.34375 0 2.140625 0.640625q0.8125 0.625 0.8125 1.625l-1.875 0q0 -0.390625 -0.265625 -0.65625q-0.265625 -0.265625 -0.8125 -0.265625q-0.46875 0 -0.734375 0.21875q-0.265625 0.203125 -0.265625 0.546875q0 0.3125 0.296875 0.5q0.296875 0.1875 1.0 0.328125q0.703125 0.140625 1.1875 0.3125q1.484375 0.546875 1.484375 1.890625q0 0.96875 -0.828125 1.5625q-0.8125 0.59375 -2.125 0.59375q-0.890625 0 -1.578125 -0.3125q-0.6875 -0.3125 -1.078125 -0.859375q-0.390625 -0.546875 -0.390625 -1.1875l1.78125 0q0.03125 0.5 0.375 0.765625q0.34375 0.265625 0.921875 0.265625q0.546875 0 0.8125 -0.203125q0.28125 -0.203125 0.28125 -0.546875zm5.2903137 -6.8125l0 1.71875l1.203125 0l0 1.390625l-1.203125 0l0 3.515625q0 0.390625 0.15625 0.5625q0.15625 0.15625 0.578125 0.15625q0.3125 0 0.546875 -0.046875l0 1.4375q-0.546875 0.15625 -1.140625 0.15625q-1.984375 0 -2.015625 -2.0l0 -3.78125l-1.03125 0l0 -1.390625l1.03125 0l0 -1.71875l1.875 0zm6.3315735 8.765625q-0.125 -0.25 -0.1875 -0.625q-0.671875 0.75 -1.765625 0.75q-1.046875 0 -1.734375 -0.59375q-0.671875 -0.59375 -0.671875 -1.515625q0 -1.109375 0.828125 -1.703125q0.84375 -0.609375 2.40625 -0.609375l0.859375 0l0 -0.40625q0 -0.484375 -0.25 -0.78125q-0.25 -0.296875 -0.78125 -0.296875q-0.484375 0 -0.75 0.234375q-0.265625 0.21875 -0.265625 0.625l-1.890625 0q0 -0.609375 0.375 -1.125q0.390625 -0.53125 1.078125 -0.828125q0.6875 -0.296875 1.546875 -0.296875q1.296875 0 2.0625 0.65625q0.765625 0.65625 0.765625 1.84375l0 3.046875q0.015625 1.0 0.28125 1.515625l0 0.109375l-1.90625 0zm-1.546875 -1.3125q0.40625 0 0.75 -0.171875q0.359375 -0.1875 0.53125 -0.5l0 -1.21875l-0.703125 0q-1.40625 0 -1.5 0.984375l0 0.109375q0 0.34375 0.234375 0.578125q0.25 0.21875 0.6875 0.21875zm8.567505 -3.96875q-0.375 -0.046875 -0.671875 -0.046875q-1.0625 0 -1.390625 0.71875l0 4.609375l-1.890625 0l0 -7.046875l1.78125 0l0.046875 0.84375q0.578125 -0.96875 1.578125 -0.96875q0.3125 0 0.578125 0.078125l-0.03125 1.8125zm3.4837952 -3.484375l0 1.71875l1.203125 0l0 1.390625l-1.203125 0l0 3.515625q0 0.390625 0.15625 0.5625q0.15625 0.15625 0.578125 0.15625q0.3125 0 0.546875 -0.046875l0 1.4375q-0.546875 0.15625 -1.140625 0.15625q-1.984375 0 -2.015625 -2.0l0 -3.78125l-1.03125 0l0 -1.390625l1.03125 0l0 -1.71875l1.875 0z" fill-rule="nonzero"/><path fill="#000000" fill-opacity="0.0" d="m300.6378 7.694226l174.48819 0l0 18.141733l-174.48819 0z" fill-rule="evenodd"/><path fill="#434343" d="m334.32425 21.56509l-1.953125 0l-3.796875 -6.234375l0 6.234375l-1.953125 0l0 -9.46875l1.953125 0l3.8125 6.234375l0 -6.234375l1.9375 0l0 9.46875zm7.183838 -1.953125l-3.4375 0l-0.640625 1.953125l-2.078125 0l3.53125 -9.46875l1.796875 0l3.546875 9.46875l-2.0625 0l-0.65625 -1.953125zm-2.90625 -1.578125l2.375 0l-1.1875 -3.546875l-1.1875 3.546875zm12.874084 -4.359375l-2.90625 0l0 7.890625l-1.953125 0l0 -7.890625l-2.859375 0l0 -1.578125l7.71875 0l0 1.578125zm3.1829834 7.890625l-1.953125 0l0 -9.46875l1.953125 0l0 9.46875zm5.3070984 -2.34375l2.15625 -7.125l2.171875 0l-3.296875 9.46875l-2.046875 0l-3.28125 -9.46875l2.171875 0l2.125 7.125zm10.917175 -1.765625l-3.75 0l0 2.546875l4.40625 0l0 1.5625l-6.359375 0l0 -9.46875l6.34375 0l0 1.578125l-4.390625 0l0 2.25l3.75 0l0 1.53125zm12.550446 0.953125q-0.109375 1.53125 -1.125 2.40625q-1.015625 0.875 -2.6875 0.875q-1.8125 0 -2.859375 -1.21875q-1.046875 -1.234375 -1.046875 -3.375l0 -0.578125q0 -1.359375 0.46875 -2.40625q0.484375 -1.046875 1.375 -1.59375q0.90625 -0.5625 2.09375 -0.5625q1.640625 0 2.640625 0.890625q1.0 0.875 1.15625 2.453125l-1.953125 0q-0.0625 -0.90625 -0.515625 -1.3125q-0.4375 -0.421875 -1.328125 -0.421875q-0.984375 0 -1.46875 0.703125q-0.484375 0.6875 -0.5 2.15625l0 0.71875q0 1.53125 0.46875 2.25q0.46875 0.703125 1.46875 0.703125q0.90625 0 1.34375 -0.40625q0.453125 -0.421875 0.515625 -1.28125l1.953125 0zm6.6424255 1.203125l-3.4375 0l-0.640625 1.953125l-2.078125 0l3.53125 -9.46875l1.796875 0l3.546875 9.46875l-2.0625 0l-0.65625 -1.953125zm-2.90625 -1.578125l2.375 0l-1.1875 -3.546875l-1.1875 3.546875zm8.467865 1.96875l4.140625 0l0 1.5625l-6.09375 0l0 -9.46875l1.953125 0l0 7.90625zm7.217224 0l4.140625 0l0 1.5625l-6.09375 0l0 -9.46875l1.953125 0l0 7.90625zm5.2641296 1.5625l0 -9.46875l3.328125 0q1.71875 0 2.609375 0.65625q0.890625 0.65625 0.890625 1.9375q0 0.6875 -0.359375 1.21875q-0.359375 0.53125 -1.0 0.78125q0.734375 0.1875 1.15625 0.75q0.421875 0.546875 0.421875 1.34375q0 1.359375 -0.875 2.0625q-0.875 0.703125 -2.484375 0.71875l-3.6875 0zm1.953125 -4.125l0 2.5625l1.671875 0q0.6875 0 1.078125 -0.328125q0.390625 -0.328125 0.390625 -0.921875q0 -1.296875 -1.34375 -1.3125l-1.796875 0zm0 -1.375l1.453125 0q1.46875 -0.03125 1.46875 -1.1875q0 -0.640625 -0.375 -0.921875q-0.375 -0.28125 -1.171875 -0.28125l-1.375 0l0 2.390625zm11.912048 3.546875l-3.4375 0l-0.640625 1.953125l-2.078125 0l3.53125 -9.46875l1.796875 0l3.546875 9.46875l-2.0625 0l-0.65625 -1.953125zm-2.90625 -1.578125l2.375 0l-1.1875 -3.546875l-1.1875 3.546875zm13.815491 0.375q-0.109375 1.53125 -1.125 2.40625q-1.015625 0.875 -2.6875 0.875q-1.8125 0 -2.859375 -1.21875q-1.046875 -1.234375 -1.046875 -3.375l0 -0.578125q0 -1.359375 0.46875 -2.40625q0.484375 -1.046875 1.375 -1.59375q0.90625 -0.5625 2.09375 -0.5625q1.640625 0 2.640625 0.890625q1.0 0.875 1.15625 2.453125l-1.953125 0q-0.0625 -0.90625 -0.515625 -1.3125q-0.4375 -0.421875 -1.328125 -0.421875q-0.984375 0 -1.46875 0.703125q-0.484375 0.6875 -0.5 2.15625l0 0.71875q0 1.53125 0.46875 2.25q0.46875 0.703125 1.46875 0.703125q0.90625 0 1.34375 -0.40625q0.453125 -0.421875 0.515625 -1.28125l1.953125 0zm4.2518005 -0.640625l-1.015625 1.09375l0 2.703125l-1.953125 0l0 -9.46875l1.953125 0l0 4.28125l0.859375 -1.171875l2.421875 -3.109375l2.390625 0l-3.359375 4.203125l3.46875 5.265625l-2.328125 0l-2.4375 -3.796875zm10.413361 1.3125q0 -0.5625 -0.390625 -0.84375q-0.390625 -0.296875 -1.40625 -0.625q-1.015625 -0.328125 -1.609375 -0.65625q-1.625 -0.875 -1.625 -2.34375q0 -0.765625 0.4375 -1.359375q0.4375 -0.609375 1.25 -0.953125q0.8125 -0.34375 1.8125 -0.34375q1.015625 0 1.8125 0.375q0.796875 0.359375 1.234375 1.03125q0.4375 0.671875 0.4375 1.53125l-1.953125 0q0 -0.65625 -0.40625 -1.015625q-0.40625 -0.359375 -1.15625 -0.359375q-0.71875 0 -1.125 0.3125q-0.390625 0.296875 -0.390625 0.78125q0 0.46875 0.46875 0.78125q0.46875 0.3125 1.375 0.578125q1.671875 0.5 2.421875 1.25q0.765625 0.734375 0.765625 1.84375q0 1.234375 -0.9375 1.9375q-0.921875 0.6875 -2.5 0.6875q-1.09375 0 -2.0 -0.390625q-0.890625 -0.40625 -1.359375 -1.09375q-0.46875 -0.703125 -0.46875 -1.625l1.953125 0q0 1.578125 1.875 1.578125q0.703125 0 1.09375 -0.28125q0.390625 -0.296875 0.390625 -0.796875z" fill-rule="nonzero"/><path fill="#a4c2f4" d="m315.6614 75.54462l140.72443 0l0 23.937012l-140.72443 0z" fill-rule="evenodd"/><path stroke="#1c4587" stroke-width="2.0" stroke-linejoin="round" stroke-linecap="butt" d="m315.6614 75.54462l140.72443 0l0 23.937012l-140.72443 0z" fill-rule="evenodd"/><path fill="#1c4587" d="m329.19266 90.36q0 -0.34375 -0.34375 -0.53125q-0.328125 -0.203125 -1.09375 -0.359375q-2.515625 -0.53125 -2.515625 -2.140625q0 -0.9375 0.78125 -1.5625q0.78125 -0.625 2.03125 -0.625q1.34375 0 2.140625 0.640625q0.8125 0.625 0.8125 1.625l-1.875 0q0 -0.390625 -0.265625 -0.65625q-0.265625 -0.265625 -0.8125 -0.265625q-0.46875 0 -0.734375 0.21875q-0.265625 0.203125 -0.265625 0.546875q0 0.3125 0.296875 0.5q0.296875 0.1875 1.0 0.328125q0.703125 0.140625 1.1875 0.3125q1.484375 0.546875 1.484375 1.890625q0 0.96875 -0.828125 1.5625q-0.8125 0.59375 -2.125 0.59375q-0.890625 0 -1.578125 -0.3125q-0.6875 -0.3125 -1.078125 -0.859375q-0.390625 -0.546875 -0.390625 -1.1875l1.78125 0q0.03125 0.5 0.375 0.765625q0.34375 0.265625 0.921875 0.265625q0.546875 0 0.8125 -0.203125q0.28125 -0.203125 0.28125 -0.546875zm5.2903137 -6.8125l0 1.71875l1.203125 0l0 1.390625l-1.203125 0l0 3.515625q0 0.390625 0.15625 0.5625q0.15625 0.15625 0.578125 0.15625q0.3125 0 0.546875 -0.046875l0 1.4375q-0.546875 0.15625 -1.140625 0.15625q-1.984375 0 -2.015625 -2.0l0 -3.78125l-1.03125 0l0 -1.390625l1.03125 0l0 -1.71875l1.875 0zm1.761261 5.1875q0 -1.0625 0.40625 -1.875q0.40625 -0.828125 1.15625 -1.265625q0.765625 -0.453125 1.765625 -0.453125q1.4375 0 2.328125 0.875q0.90625 0.875 1.015625 2.359375l0 0.484375q0 1.625 -0.90625 2.609375q-0.890625 0.96875 -2.421875 0.96875q-1.515625 0 -2.4375 -0.96875q-0.90625 -0.984375 -0.90625 -2.65625l0 -0.078125zm1.890625 0.125q0 1.0 0.375 1.53125q0.375 0.53125 1.078125 0.53125q0.6875 0 1.0625 -0.515625q0.390625 -0.53125 0.390625 -1.671875q0 -0.984375 -0.390625 -1.53125q-0.375 -0.546875 -1.078125 -0.546875q-0.6875 0 -1.0625 0.546875q-0.375 0.53125 -0.375 1.65625zm12.286102 0q0 1.625 -0.75 2.609375q-0.734375 0.96875 -1.984375 0.96875q-1.0625 0 -1.71875 -0.734375l0 3.3125l-1.890625 0l0 -9.75l1.75 0l0.0625 0.6875q0.6875 -0.8125 1.78125 -0.8125q1.296875 0 2.015625 0.96875q0.734375 0.953125 0.734375 2.65625l0 0.09375zm-1.875 -0.140625q0 -0.984375 -0.359375 -1.515625q-0.34375 -0.53125 -1.015625 -0.53125q-0.875 0 -1.203125 0.671875l0 2.890625q0.34375 0.6875 1.21875 0.6875q1.359375 0 1.359375 -2.203125z" fill-rule="nonzero"/><path fill="#a4c2f4" d="m315.6614 111.29527l140.72443 0l0 23.937012l-140.72443 0z" fill-rule="evenodd"/><path stroke="#1c4587" stroke-width="2.0" stroke-linejoin="round" stroke-linecap="butt" d="m315.6614 111.29527l140.72443 0l0 23.937012l-140.72443 0z" fill-rule="evenodd"/><path fill="#1c4587" d="m325.11453 124.48566q0 -1.609375 0.765625 -2.59375q0.765625 -1.0 2.078125 -1.0q1.15625 0 1.8125 0.796875l0.078125 -0.671875l1.703125 0l0 6.8125q0 0.921875 -0.421875 1.609375q-0.421875 0.6875 -1.1875 1.03125q-0.765625 0.359375 -1.78125 0.359375q-0.765625 0 -1.515625 -0.3125q-0.734375 -0.296875 -1.109375 -0.78125l0.84375 -1.15625q0.703125 0.796875 1.703125 0.796875q0.75 0 1.15625 -0.40625q0.421875 -0.40625 0.421875 -1.140625l0 -0.375q-0.65625 0.734375 -1.71875 0.734375q-1.265625 0 -2.046875 -0.984375q-0.78125 -1.0 -0.78125 -2.640625l0 -0.078125zm1.875 0.140625q0 0.953125 0.375 1.5q0.390625 0.546875 1.0625 0.546875q0.859375 0 1.234375 -0.640625l0 -2.96875q-0.375 -0.640625 -1.21875 -0.640625q-0.671875 0 -1.0625 0.5625q-0.390625 0.546875 -0.390625 1.640625zm9.248352 3.5625q-1.546875 0 -2.53125 -0.9375q-0.96875 -0.953125 -0.96875 -2.53125l0 -0.1875q0 -1.0625 0.40625 -1.890625q0.40625 -0.84375 1.15625 -1.296875q0.765625 -0.453125 1.71875 -0.453125q1.453125 0 2.28125 0.921875q0.828125 0.90625 0.828125 2.578125l0 0.765625l-4.484375 0q0.09375 0.6875 0.546875 1.109375q0.46875 0.40625 1.171875 0.40625q1.078125 0 1.6875 -0.78125l0.921875 1.03125q-0.421875 0.59375 -1.140625 0.9375q-0.71875 0.328125 -1.59375 0.328125zm-0.21875 -5.78125q-0.5625 0 -0.90625 0.390625q-0.34375 0.375 -0.453125 1.078125l2.625 0l0 -0.15625q-0.015625 -0.625 -0.34375 -0.96875q-0.328125 -0.34375 -0.921875 -0.34375zm6.4229736 -3.109375l0 1.71875l1.203125 0l0 1.390625l-1.203125 0l0 3.515625q0 0.390625 0.15625 0.5625q0.15625 0.15625 0.578125 0.15625q0.3125 0 0.546875 -0.046875l0 1.4375q-0.546875 0.15625 -1.140625 0.15625q-1.984375 0 -2.015625 -2.0l0 -3.78125l-1.03125 0l0 -1.390625l1.03125 0l0 -1.71875l1.875 0zm7.4721985 10.234375l-5.9375 0l0 -1.46875l5.9375 0l0 1.46875zm2.7138062 -1.46875l-1.890625 0l0 -7.046875l1.890625 0l0 7.046875zm-2.0 -8.859375q0 -0.421875 0.28125 -0.6875q0.296875 -0.28125 0.78125 -0.28125q0.484375 0 0.765625 0.28125q0.28125 0.265625 0.28125 0.6875q0 0.421875 -0.296875 0.703125q-0.28125 0.265625 -0.765625 0.265625q-0.46875 0 -0.765625 -0.265625q-0.28125 -0.28125 -0.28125 -0.703125zm5.283783 1.8125l0.0625 0.8125q0.75 -0.9375 2.015625 -0.9375q1.125 0 1.671875 0.65625q0.546875 0.65625 0.5625 1.96875l0 4.546875l-1.890625 0l0 -4.5q0 -0.609375 -0.265625 -0.875q-0.25 -0.265625 -0.859375 -0.265625q-0.78125 0 -1.1875 0.671875l0 4.96875l-1.875 0l0 -7.046875l1.765625 0zm6.2457886 7.046875l0 -5.65625l-1.046875 0l0 -1.390625l1.046875 0l0 -0.59375q0 -1.1875 0.671875 -1.828125q0.6875 -0.65625 1.90625 -0.65625q0.390625 0 0.96875 0.125l-0.03125 1.453125q-0.234375 -0.0625 -0.5625 -0.0625q-1.0625 0 -1.0625 1.0l0 0.5625l1.390625 0l0 1.390625l-1.390625 0l0 5.65625l-1.890625 0zm3.9642944 -3.578125q0 -1.0625 0.40625 -1.875q0.40625 -0.828125 1.15625 -1.265625q0.765625 -0.453125 1.765625 -0.453125q1.4375 0 2.328125 0.875q0.90625 0.875 1.015625 2.359375l0 0.484375q0 1.625 -0.90625 2.609375q-0.890625 0.96875 -2.421875 0.96875q-1.515625 0 -2.4375 -0.96875q-0.90625 -0.984375 -0.90625 -2.65625l0 -0.078125zm1.890625 0.125q0 1.0 0.375 1.53125q0.375 0.53125 1.078125 0.53125q0.6875 0 1.0625 -0.515625q0.390625 -0.53125 0.390625 -1.671875q0 -0.984375 -0.390625 -1.53125q-0.375 -0.546875 -1.078125 -0.546875q-0.6875 0 -1.0625 0.546875q-0.375 0.53125 -0.375 1.65625z" fill-rule="nonzero"/><path fill="#a4c2f4" d="m315.6614 147.04593l140.72443 0l0 23.937012l-140.72443 0z" fill-rule="evenodd"/><path stroke="#1c4587" stroke-width="2.0" stroke-linejoin="round" stroke-linecap="butt" d="m315.6614 147.04593l140.72443 0l0 23.937012l-140.72443 0z" fill-rule="evenodd"/><path fill="#1c4587" d="m327.2239 157.53319q0.75 -0.890625 1.875 -0.890625q2.296875 0 2.328125 2.65625l0 4.515625l-1.890625 0l0 -4.453125q0 -0.609375 -0.265625 -0.890625q-0.25 -0.296875 -0.859375 -0.296875q-0.828125 0 -1.1875 0.640625l0 5.0l-1.890625 0l0 -10.0l1.890625 0l0 3.71875zm8.864288 6.40625q-1.546875 0 -2.53125 -0.9375q-0.96875 -0.953125 -0.96875 -2.53125l0 -0.1875q0 -1.0625 0.40625 -1.890625q0.40625 -0.84375 1.15625 -1.296875q0.765625 -0.453125 1.71875 -0.453125q1.453125 0 2.28125 0.921875q0.828125 0.90625 0.828125 2.578125l0 0.765625l-4.484375 0q0.09375 0.6875 0.546875 1.109375q0.46875 0.40625 1.171875 0.40625q1.078125 0 1.6875 -0.78125l0.921875 1.03125q-0.421875 0.59375 -1.140625 0.9375q-0.71875 0.328125 -1.59375 0.328125zm-0.21875 -5.78125q-0.5625 0 -0.90625 0.390625q-0.34375 0.375 -0.453125 1.078125l2.625 0l0 -0.15625q-0.015625 -0.625 -0.34375 -0.96875q-0.328125 -0.34375 -0.921875 -0.34375zm8.251099 5.65625q-0.125 -0.25 -0.1875 -0.625q-0.671875 0.75 -1.765625 0.75q-1.046875 0 -1.734375 -0.59375q-0.671875 -0.59375 -0.671875 -1.515625q0 -1.109375 0.828125 -1.703125q0.84375 -0.609375 2.40625 -0.609375l0.859375 0l0 -0.40625q0 -0.484375 -0.25 -0.78125q-0.25 -0.296875 -0.78125 -0.296875q-0.484375 0 -0.75 0.234375q-0.265625 0.21875 -0.265625 0.625l-1.890625 0q0 -0.609375 0.375 -1.125q0.390625 -0.53125 1.078125 -0.828125q0.6875 -0.296875 1.546875 -0.296875q1.296875 0 2.0625 0.65625q0.765625 0.65625 0.765625 1.84375l0 3.046875q0.015625 1.0 0.28125 1.515625l0 0.109375l-1.90625 0zm-1.546875 -1.3125q0.40625 0 0.75 -0.171875q0.359375 -0.1875 0.53125 -0.5l0 -1.21875l-0.703125 0q-1.40625 0 -1.5 0.984375l0 0.109375q0 0.34375 0.234375 0.578125q0.25 0.21875 0.6875 0.21875zm6.598755 1.3125l-1.890625 0l0 -10.0l1.890625 0l0 10.0zm3.799408 -8.765625l0 1.71875l1.203125 0l0 1.390625l-1.203125 0l0 3.515625q0 0.390625 0.15625 0.5625q0.15625 0.15625 0.578125 0.15625q0.3125 0 0.546875 -0.046875l0 1.4375q-0.546875 0.15625 -1.140625 0.15625q-1.984375 0 -2.015625 -2.0l0 -3.78125l-1.03125 0l0 -1.390625l1.03125 0l0 -1.71875l1.875 0zm4.0971985 2.484375q0.75 -0.890625 1.875 -0.890625q2.296875 0 2.328125 2.65625l0 4.515625l-1.890625 0l0 -4.453125q0 -0.609375 -0.265625 -0.890625q-0.25 -0.296875 -0.859375 -0.296875q-0.828125 0 -1.1875 0.640625l0 5.0l-1.890625 0l0 -10.0l1.890625 0l0 3.71875zm10.833038 7.75l-5.9375 0l0 -1.46875l5.9375 0l0 1.46875zm3.6669312 -2.859375q0.515625 0 0.84375 -0.28125q0.328125 -0.28125 0.328125 -0.765625l1.765625 0q0 0.71875 -0.390625 1.3125q-0.375 0.59375 -1.046875 0.921875q-0.671875 0.328125 -1.46875 0.328125q-1.515625 0 -2.390625 -0.953125q-0.875 -0.96875 -0.875 -2.65625l0 -0.125q0 -1.625 0.859375 -2.59375q0.875 -0.96875 2.390625 -0.96875q1.3125 0 2.109375 0.75q0.8125 0.75 0.8125 2.0l-1.765625 0q0 -0.546875 -0.328125 -0.890625q-0.328125 -0.34375 -0.859375 -0.34375q-0.65625 0 -1.0 0.484375q-0.328125 0.484375 -0.328125 1.546875l0 0.203125q0 1.078125 0.328125 1.5625q0.328125 0.46875 1.015625 0.46875zm5.856659 -4.890625q0.75 -0.890625 1.875 -0.890625q2.296875 0 2.328125 2.65625l0 4.515625l-1.890625 0l0 -4.453125q0 -0.609375 -0.265625 -0.890625q-0.25 -0.296875 -0.859375 -0.296875q-0.828125 0 -1.1875 0.640625l0 5.0l-1.890625 0l0 -10.0l1.890625 0l0 3.71875zm8.864288 6.40625q-1.546875 0 -2.53125 -0.9375q-0.96875 -0.953125 -0.96875 -2.53125l0 -0.1875q0 -1.0625 0.40625 -1.890625q0.40625 -0.84375 1.15625 -1.296875q0.765625 -0.453125 1.71875 -0.453125q1.453125 0 2.28125 0.921875q0.828125 0.90625 0.828125 2.578125l0 0.765625l-4.484375 0q0.09375 0.6875 0.546875 1.109375q0.46875 0.40625 1.171875 0.40625q1.078125 0 1.6875 -0.78125l0.921875 1.03125q-0.421875 0.59375 -1.140625 0.9375q-0.71875 0.328125 -1.59375 0.328125zm-0.21875 -5.78125q-0.5625 0 -0.90625 0.390625q-0.34375 0.375 -0.453125 1.078125l2.625 0l0 -0.15625q-0.015625 -0.625 -0.34375 -0.96875q-0.328125 -0.34375 -0.921875 -0.34375zm7.1104736 4.265625q0.515625 0 0.84375 -0.28125q0.328125 -0.28125 0.328125 -0.765625l1.765625 0q0 0.71875 -0.390625 1.3125q-0.375 0.59375 -1.046875 0.921875q-0.671875 0.328125 -1.46875 0.328125q-1.515625 0 -2.390625 -0.953125q-0.875 -0.96875 -0.875 -2.65625l0 -0.125q0 -1.625 0.859375 -2.59375q0.875 -0.96875 2.390625 -0.96875q1.3125 0 2.109375 0.75q0.8125 0.75 0.8125 2.0l-1.765625 0q0 -0.546875 -0.328125 -0.890625q-0.328125 -0.34375 -0.859375 -0.34375q-0.65625 0 -1.0 0.484375q-0.328125 0.484375 -0.328125 1.546875l0 0.203125q0 1.078125 0.328125 1.5625q0.328125 0.46875 1.015625 0.46875zm6.575409 -1.4375l-0.671875 0.6875l0 2.140625l-1.890625 0l0 -10.0l1.890625 0l0 5.546875l0.359375 -0.46875l1.796875 -2.125l2.265625 0l-2.546875 2.9375l2.765625 4.109375l-2.15625 0l-1.8125 -2.828125z" fill-rule="nonzero"/><path fill="#f1c232" d="m14.212599 217.50919l108.28346 0l0 28.157486l-108.28346 0z" fill-rule="evenodd"/><path stroke="#7f6000" stroke-width="2.0" stroke-linejoin="round" stroke-linecap="butt" d="m14.212599 217.50919l108.28346 0l0 28.157486l-108.28346 0z" fill-rule="evenodd"/><path fill="#783f04" d="m40.506763 233.90355q0 -0.5625 -0.390625 -0.84375q-0.390625 -0.296875 -1.40625 -0.625q-1.015625 -0.328125 -1.609375 -0.65625q-1.625 -0.875 -1.625 -2.34375q0 -0.765625 0.4375 -1.359375q0.4375 -0.609375 1.25 -0.953125q0.8125 -0.34375 1.8125 -0.34375q1.015625 0 1.8125 0.375q0.796875 0.359375 1.234375 1.03125q0.4375 0.671875 0.4375 1.53125l-1.953125 0q0 -0.65625 -0.40625 -1.015625q-0.40625 -0.359375 -1.15625 -0.359375q-0.71875 0 -1.125 0.3125q-0.390625 0.296875 -0.390625 0.78125q0 0.46875 0.46875 0.78125q0.46875 0.3125 1.375 0.578125q1.671875 0.5 2.421875 1.25q0.765625 0.734375 0.765625 1.84375q0 1.234375 -0.9375 1.9375q-0.921875 0.6875 -2.5 0.6875q-1.09375 0 -2.0 -0.390625q-0.890625 -0.40625 -1.359375 -1.09375q-0.46875 -0.703125 -0.46875 -1.625l1.953125 0q0 1.578125 1.875 1.578125q0.703125 0 1.09375 -0.28125q0.390625 -0.296875 0.390625 -0.796875zm6.0840454 1.09375q0.515625 0 0.84375 -0.28125q0.328125 -0.28125 0.328125 -0.765625l1.765625 0q0 0.71875 -0.390625 1.3125q-0.375 0.59375 -1.046875 0.921875q-0.671875 0.328125 -1.46875 0.328125q-1.515625 0 -2.390625 -0.953125q-0.875 -0.96875 -0.875 -2.65625l0 -0.125q0 -1.625 0.859375 -2.59375q0.875 -0.96875 2.390625 -0.96875q1.3125 0 2.109375 0.75q0.8125 0.75 0.8125 2.0l-1.765625 0q0 -0.546875 -0.328125 -0.890625q-0.328125 -0.34375 -0.859375 -0.34375q-0.65625 0 -1.0 0.484375q-0.328125 0.484375 -0.328125 1.546875l0 0.203125q0 1.078125 0.328125 1.5625q0.328125 0.46875 1.015625 0.46875zm5.856659 -4.890625q0.75 -0.890625 1.875 -0.890625q2.296875 0 2.328125 2.65625l0 4.515625l-1.890625 0l0 -4.453125q0 -0.609375 -0.265625 -0.890625q-0.25 -0.296875 -0.859375 -0.296875q-0.828125 0 -1.1875 0.640625l0 5.0l-1.890625 0l0 -10.0l1.890625 0l0 3.71875zm8.864273 6.40625q-1.546875 0 -2.53125 -0.9375q-0.96875 -0.953125 -0.96875 -2.53125l0 -0.1875q0 -1.0625 0.40625 -1.890625q0.40625 -0.84375 1.15625 -1.296875q0.765625 -0.453125 1.71875 -0.453125q1.453125 0 2.28125 0.921875q0.8281288 0.90625 0.8281288 2.578125l0 0.765625l-4.484379 0q0.09375 0.6875 0.546875 1.109375q0.46875 0.40625 1.171875 0.40625q1.078125 0 1.6875 -0.78125l0.9218788 1.03125q-0.4218788 0.59375 -1.1406288 0.9375q-0.71875 0.328125 -1.59375 0.328125zm-0.21875 -5.78125q-0.5625 0 -0.90625 0.390625q-0.34375 0.375 -0.453125 1.078125l2.625 0l0 -0.15625q-0.015625 -0.625 -0.34375 -0.96875q-0.328125 -0.34375 -0.921875 -0.34375zm3.8761024 2.078125q0 -1.640625 0.734375 -2.609375q0.75 -0.984375 2.03125 -0.984375q1.03125 0 1.703125 0.765625l0 -3.59375l1.890625 0l0 10.0l-1.703125 0l-0.09375 -0.75q-0.703125 0.875 -1.8125 0.875q-1.234375 0 -2.0 -0.96875q-0.75 -0.984375 -0.75 -2.734375zm1.890625 0.140625q0 0.984375 0.34375 1.515625q0.34375 0.53125 1.0 0.53125q0.875 0 1.234375 -0.734375l0 -2.78125q-0.359375 -0.734375 -1.21875 -0.734375q-1.359375 0 -1.359375 2.203125zm10.135086 2.71875q-0.6875 0.84375 -1.921875 0.84375q-1.140625 0 -1.734375 -0.640625q-0.59375 -0.65625 -0.609375 -1.90625l0 -4.625l1.890625 0l0 4.546875q0 1.109375 1.0 1.109375q0.953125 0 1.3125 -0.671875l0 -4.984375l1.890625 0l0 7.046875l-1.78125 0l-0.046875 -0.71875zm5.223648 0.71875l-1.890625 0l0 -10.0l1.890625 0l0 10.0zm4.799408 0.125q-1.546875 0 -2.53125 -0.9375q-0.96875 -0.953125 -0.96875 -2.53125l0 -0.1875q0 -1.0625 0.40625 -1.890625q0.40625 -0.84375 1.15625 -1.296875q0.765625 -0.453125 1.71875 -0.453125q1.453125 0 2.28125 0.921875q0.828125 0.90625 0.828125 2.578125l0 0.765625l-4.484375 0q0.09375 0.6875 0.546875 1.109375q0.46875 0.40625 1.171875 0.40625q1.078125 0 1.6875 -0.78125l0.921875 1.03125q-0.421875 0.59375 -1.140625 0.9375q-0.71875 0.328125 -1.59375 0.328125zm-0.21875 -5.78125q-0.5625 0 -0.90625 0.390625q-0.34375 0.375 -0.453125 1.078125l2.625 0l0 -0.15625q-0.015625 -0.625 -0.34375 -0.96875q-0.328125 -0.34375 -0.921875 -0.34375zm8.126099 0.375q-0.375 -0.046875 -0.671875 -0.046875q-1.0625 0 -1.390625 0.71875l0 4.609375l-1.890625 0l0 -7.046875l1.78125 0l0.046875 0.84375q0.578125 -0.96875 1.578125 -0.96875q0.3125 0 0.578125 0.078125l-0.03125 1.8125zm4.720764 3.328125q0 -0.34375 -0.34375 -0.53125q-0.328125 -0.203125 -1.09375 -0.359375q-2.515625 -0.53125 -2.515625 -2.140625q0 -0.9375 0.78125 -1.5625q0.78125 -0.625 2.03125 -0.625q1.34375 0 2.140625 0.640625q0.8125 0.625 0.8125 1.625l-1.875 0q0 -0.390625 -0.265625 -0.65625q-0.265625 -0.265625 -0.8125 -0.265625q-0.46875 0 -0.734375 0.21875q-0.265625 0.203125 -0.265625 0.546875q0 0.3125 0.296875 0.5q0.296875 0.1875 1.0 0.328125q0.703125 0.140625 1.1875 0.3125q1.484375 0.546875 1.484375 1.890625q0 0.96875 -0.828125 1.5625q-0.8125 0.59375 -2.125 0.59375q-0.890625 0 -1.578125 -0.3125q-0.6875 -0.3125 -1.078125 -0.859375q-0.390625 -0.546875 -0.390625 -1.1875l1.78125 0q0.03125 0.5 0.375 0.765625q0.34375 0.265625 0.921875 0.265625q0.546875 0 0.8125 -0.203125q0.28125 -0.203125 0.28125 -0.546875z" fill-rule="nonzero"/><path fill="#000000" fill-opacity="0.0" d="m208.14174 200.94489l47.34906 0l0 -95.338585l45.15486 0" fill-rule="evenodd"/><path stroke="#434343" stroke-width="2.0" stroke-linejoin="round" stroke-linecap="butt" d="m208.14174 200.94489l47.34906 0l0 -95.338585l37.574875 0" fill-rule="evenodd"/><path fill="#434343" stroke="#434343" stroke-width="2.0" stroke-linecap="butt" d="m299.64566 105.6063c0 1.8170166 -1.4729614 3.290001 -3.289978 3.290001c-1.8170166 0 -3.2900085 -1.4729843 -3.2900085 -3.290001c0 -1.8170166 1.472992 -3.290001 3.2900085 -3.290001c1.8170166 0 3.289978 1.4729843 3.289978 3.290001z" fill-rule="nonzero"/><path fill="#000000" fill-opacity="0.0" d="m302.49606 219.70667l0 0c0 -3.153885 2.5567322 -5.710602 5.710602 -5.710602l159.35043 0c1.5145569 0 2.9670715 0.60165405 4.038025 1.6725922c1.0709534 1.0709534 1.6726074 2.523468 1.6726074 4.0380096l0 178.02762c0 3.1538696 -2.5567322 5.710602 -5.7106323 5.710602l-159.35043 0l0 0c-3.1538696 0 -5.710602 -2.5567322 -5.710602 -5.710602z" fill-rule="evenodd"/><path stroke="#434343" stroke-width="2.0" stroke-linejoin="round" stroke-linecap="butt" d="m302.49606 219.70667l0 0c0 -3.153885 2.5567322 -5.710602 5.710602 -5.710602l159.35043 0c1.5145569 0 2.9670715 0.60165405 4.038025 1.6725922c1.0709534 1.0709534 1.6726074 2.523468 1.6726074 4.0380096l0 178.02762c0 3.1538696 -2.5567322 5.710602 -5.7106323 5.710602l-159.35043 0l0 0c-3.1538696 0 -5.710602 -2.5567322 -5.710602 -5.710602z" fill-rule="evenodd"/><path fill="#000000" fill-opacity="0.0" d="m300.6378 193.41602l174.48819 0l0 18.141724l-174.48819 0z" fill-rule="evenodd"/><path fill="#434343" d="m347.109 207.28688l-1.953125 0l-3.796875 -6.234375l0 6.234375l-1.953125 0l0 -9.46875l1.953125 0l3.8125 6.234375l0 -6.234375l1.9375 0l0 9.46875zm7.183838 -1.953125l-3.4375 0l-0.640625 1.953125l-2.078125 0l3.53125 -9.46875l1.796875 0l3.546875 9.46875l-2.0625 0l-0.65625 -1.953125zm-2.90625 -1.578125l2.375 0l-1.1875 -3.546875l-1.1875 3.546875zm12.874084 -4.359375l-2.90625 0l0 7.890625l-1.953125 0l0 -7.890625l-2.859375 0l0 -1.578125l7.71875 0l0 1.578125zm3.1829834 7.890625l-1.953125 0l0 -9.46875l1.953125 0l0 9.46875zm5.3070984 -2.34375l2.15625 -7.125l2.171875 0l-3.296875 9.46875l-2.046875 0l-3.28125 -9.46875l2.171875 0l2.125 7.125zm10.917175 -1.765625l-3.75 0l0 2.546875l4.40625 0l0 1.5625l-6.359375 0l0 -9.46875l6.34375 0l0 1.578125l-4.390625 0l0 2.25l3.75 0l0 1.53125zm10.816071 0l-3.75 0l0 2.546875l4.40625 0l0 1.5625l-6.359375 0l0 -9.46875l6.34375 0l0 1.578125l-4.390625 0l0 2.25l3.75 0l0 1.53125zm5.2939453 1.765625l2.15625 -7.125l2.171875 0l-3.296875 9.46875l-2.046875 0l-3.28125 -9.46875l2.171875 0l2.125 7.125zm10.917175 -1.765625l-3.75 0l0 2.546875l4.40625 0l0 1.5625l-6.359375 0l0 -9.46875l6.34375 0l0 1.578125l-4.390625 0l0 2.25l3.75 0l0 1.53125zm9.49707 4.109375l-1.953125 0l-3.796875 -6.234375l0 6.234375l-1.953125 0l0 -9.46875l1.953125 0l3.8125 6.234375l0 -6.234375l1.9375 0l0 9.46875zm8.659088 -7.890625l-2.90625 0l0 7.890625l-1.953125 0l0 -7.890625l-2.859375 0l0 -1.578125l7.71875 0l0 1.578125zm5.9225464 5.40625q0 -0.5625 -0.390625 -0.84375q-0.390625 -0.296875 -1.40625 -0.625q-1.015625 -0.328125 -1.609375 -0.65625q-1.625 -0.875 -1.625 -2.34375q0 -0.765625 0.4375 -1.359375q0.4375 -0.609375 1.25 -0.953125q0.8125 -0.34375 1.8125 -0.34375q1.015625 0 1.8125 0.375q0.796875 0.359375 1.234375 1.03125q0.4375 0.671875 0.4375 1.53125l-1.953125 0q0 -0.65625 -0.40625 -1.015625q-0.40625 -0.359375 -1.15625 -0.359375q-0.71875 0 -1.125 0.3125q-0.390625 0.296875 -0.390625 0.78125q0 0.46875 0.46875 0.78125q0.46875 0.3125 1.375 0.578125q1.671875 0.5 2.421875 1.25q0.765625 0.734375 0.765625 1.84375q0 1.234375 -0.9375 1.9375q-0.921875 0.6875 -2.5 0.6875q-1.09375 0 -2.0 -0.390625q-0.890625 -0.40625 -1.359375 -1.09375q-0.46875 -0.703125 -0.46875 -1.625l1.953125 0q0 1.578125 1.875 1.578125q0.703125 0 1.09375 -0.28125q0.390625 -0.296875 0.390625 -0.796875z" fill-rule="nonzero"/><path fill="#000000" fill-opacity="0.0" d="m208.14174 200.94489l47.177322 0l0 107.77951l47.184875 0" fill-rule="evenodd"/><path stroke="#434343" stroke-width="2.0" stroke-linejoin="round" stroke-linecap="butt" d="m208.14174 200.94489l47.177322 0l0 107.77951l39.60489 0" fill-rule="evenodd"/><path fill="#434343" stroke="#434343" stroke-width="2.0" stroke-linecap="butt" d="m301.50394 308.7244c0 1.8170166 -1.472992 3.2900085 -3.2900085 3.2900085c-1.8170166 0 -3.289978 -1.472992 -3.289978 -3.2900085c0 -1.8170166 1.4729614 -3.289978 3.289978 -3.289978c1.8170166 0 3.2900085 1.4729614 3.2900085 3.289978z" fill-rule="nonzero"/><path fill="#a4c2f4" d="m315.6614 225.24934l140.72443 0l0 23.937012l-140.72443 0z" fill-rule="evenodd"/><path stroke="#1c4587" stroke-width="2.0" stroke-linejoin="round" stroke-linecap="butt" d="m315.6614 225.24934l140.72443 0l0 23.937012l-140.72443 0z" fill-rule="evenodd"/><path fill="#1c4587" d="m329.19266 240.06473q0 -0.34375 -0.34375 -0.53125q-0.328125 -0.203125 -1.09375 -0.359375q-2.515625 -0.53125 -2.515625 -2.140625q0 -0.9375 0.78125 -1.5625q0.78125 -0.625 2.03125 -0.625q1.34375 0 2.140625 0.640625q0.8125 0.625 0.8125 1.625l-1.875 0q0 -0.390625 -0.265625 -0.65625q-0.265625 -0.265625 -0.8125 -0.265625q-0.46875 0 -0.734375 0.21875q-0.265625 0.203125 -0.265625 0.546875q0 0.3125 0.296875 0.5q0.296875 0.1875 1.0 0.328125q0.703125 0.140625 1.1875 0.3125q1.484375 0.546875 1.484375 1.890625q0 0.96875 -0.828125 1.5625q-0.8125 0.59375 -2.125 0.59375q-0.890625 0 -1.578125 -0.3125q-0.6875 -0.3125 -1.078125 -0.859375q-0.390625 -0.546875 -0.390625 -1.1875l1.78125 0q0.03125 0.5 0.375 0.765625q0.34375 0.265625 0.921875 0.265625q0.546875 0 0.8125 -0.203125q0.28125 -0.203125 0.28125 -0.546875zm5.2903137 -6.8125l0 1.71875l1.203125 0l0 1.390625l-1.203125 0l0 3.515625q0 0.390625 0.15625 0.5625q0.15625 0.15625 0.578125 0.15625q0.3125 0 0.546875 -0.046875l0 1.4375q-0.546875 0.15625 -1.140625 0.15625q-1.984375 0 -2.015625 -2.0l0 -3.78125l-1.03125 0l0 -1.390625l1.03125 0l0 -1.71875l1.875 0zm6.3315735 8.765625q-0.125 -0.25 -0.1875 -0.625q-0.671875 0.75 -1.765625 0.75q-1.046875 0 -1.734375 -0.59375q-0.671875 -0.59375 -0.671875 -1.515625q0 -1.109375 0.828125 -1.703125q0.84375 -0.609375 2.40625 -0.609375l0.859375 0l0 -0.40625q0 -0.484375 -0.25 -0.78125q-0.25 -0.296875 -0.78125 -0.296875q-0.484375 0 -0.75 0.234375q-0.265625 0.21875 -0.265625 0.625l-1.890625 0q0 -0.609375 0.375 -1.125q0.390625 -0.53125 1.078125 -0.828125q0.6875 -0.296875 1.546875 -0.296875q1.296875 0 2.0625 0.65625q0.765625 0.65625 0.765625 1.84375l0 3.046875q0.015625 1.0 0.28125 1.515625l0 0.109375l-1.90625 0zm-1.546875 -1.3125q0.40625 0 0.75 -0.171875q0.359375 -0.1875 0.53125 -0.5l0 -1.21875l-0.703125 0q-1.40625 0 -1.5 0.984375l0 0.109375q0 0.34375 0.234375 0.578125q0.25 0.21875 0.6875 0.21875zm8.567505 -3.96875q-0.375 -0.046875 -0.671875 -0.046875q-1.0625 0 -1.390625 0.71875l0 4.609375l-1.890625 0l0 -7.046875l1.78125 0l0.046875 0.84375q0.578125 -0.96875 1.578125 -0.96875q0.3125 0 0.578125 0.078125l-0.03125 1.8125zm3.4837952 -3.484375l0 1.71875l1.203125 0l0 1.390625l-1.203125 0l0 3.515625q0 0.390625 0.15625 0.5625q0.15625 0.15625 0.578125 0.15625q0.3125 0 0.546875 -0.046875l0 1.4375q-0.546875 0.15625 -1.140625 0.15625q-1.984375 0 -2.015625 -2.0l0 -3.78125l-1.03125 0l0 -1.390625l1.03125 0l0 -1.71875l1.875 0z" fill-rule="nonzero"/><path fill="#a4c2f4" d="m315.6614 261.0l140.72443 0l0 23.937012l-140.72443 0z" fill-rule="evenodd"/><path stroke="#1c4587" stroke-width="2.0" stroke-linejoin="round" stroke-linecap="butt" d="m315.6614 261.0l140.72443 0l0 23.937012l-140.72443 0z" fill-rule="evenodd"/><path fill="#1c4587" d="m329.19266 275.81537q0 -0.34375 -0.34375 -0.53125q-0.328125 -0.203125 -1.09375 -0.359375q-2.515625 -0.53125 -2.515625 -2.140625q0 -0.9375 0.78125 -1.5625q0.78125 -0.625 2.03125 -0.625q1.34375 0 2.140625 0.640625q0.8125 0.625 0.8125 1.625l-1.875 0q0 -0.390625 -0.265625 -0.65625q-0.265625 -0.265625 -0.8125 -0.265625q-0.46875 0 -0.734375 0.21875q-0.265625 0.203125 -0.265625 0.546875q0 0.3125 0.296875 0.5q0.296875 0.1875 1.0 0.328125q0.703125 0.140625 1.1875 0.3125q1.484375 0.546875 1.484375 1.890625q0 0.96875 -0.828125 1.5625q-0.8125 0.59375 -2.125 0.59375q-0.890625 0 -1.578125 -0.3125q-0.6875 -0.3125 -1.078125 -0.859375q-0.390625 -0.546875 -0.390625 -1.1875l1.78125 0q0.03125 0.5 0.375 0.765625q0.34375 0.265625 0.921875 0.265625q0.546875 0 0.8125 -0.203125q0.28125 -0.203125 0.28125 -0.546875zm5.2903137 -6.8125l0 1.71875l1.203125 0l0 1.390625l-1.203125 0l0 3.515625q0 0.390625 0.15625 0.5625q0.15625 0.15625 0.578125 0.15625q0.3125 0 0.546875 -0.046875l0 1.4375q-0.546875 0.15625 -1.140625 0.15625q-1.984375 0 -2.015625 -2.0l0 -3.78125l-1.03125 0l0 -1.390625l1.03125 0l0 -1.71875l1.875 0zm1.761261 5.1875q0 -1.0625 0.40625 -1.875q0.40625 -0.828125 1.15625 -1.265625q0.765625 -0.453125 1.765625 -0.453125q1.4375 0 2.328125 0.875q0.90625 0.875 1.015625 2.359375l0 0.484375q0 1.625 -0.90625 2.609375q-0.890625 0.96875 -2.421875 0.96875q-1.515625 0 -2.4375 -0.96875q-0.90625 -0.984375 -0.90625 -2.65625l0 -0.078125zm1.890625 0.125q0 1.0 0.375 1.53125q0.375 0.53125 1.078125 0.53125q0.6875 0 1.0625 -0.515625q0.390625 -0.53125 0.390625 -1.671875q0 -0.984375 -0.390625 -1.53125q-0.375 -0.546875 -1.078125 -0.546875q-0.6875 0 -1.0625 0.546875q-0.375 0.53125 -0.375 1.65625zm12.286102 0q0 1.625 -0.75 2.609375q-0.734375 0.96875 -1.984375 0.96875q-1.0625 0 -1.71875 -0.734375l0 3.3125l-1.890625 0l0 -9.75l1.75 0l0.0625 0.6875q0.6875 -0.8125 1.78125 -0.8125q1.296875 0 2.015625 0.96875q0.734375 0.953125 0.734375 2.65625l0 0.09375zm-1.875 -0.140625q0 -0.984375 -0.359375 -1.515625q-0.34375 -0.53125 -1.015625 -0.53125q-0.875 0 -1.203125 0.671875l0 2.890625q0.34375 0.6875 1.21875 0.6875q1.359375 0 1.359375 -2.203125z" fill-rule="nonzero"/><path fill="#a4c2f4" d="m315.6614 296.75067l140.72443 0l0 23.936981l-140.72443 0z" fill-rule="evenodd"/><path stroke="#1c4587" stroke-width="2.0" stroke-linejoin="round" stroke-linecap="butt" d="m315.6614 296.75067l140.72443 0l0 23.936981l-140.72443 0z" fill-rule="evenodd"/><path fill="#1c4587" d="m329.45828 313.51917q-0.125 -0.25 -0.1875 -0.625q-0.671875 0.75 -1.765625 0.75q-1.046875 0 -1.734375 -0.59375q-0.671875 -0.59375 -0.671875 -1.515625q0 -1.109375 0.828125 -1.703125q0.84375 -0.609375 2.40625 -0.609375l0.859375 0l0 -0.40625q0 -0.484375 -0.25 -0.78125q-0.25 -0.296875 -0.78125 -0.296875q-0.484375 0 -0.75 0.234375q-0.265625 0.21875 -0.265625 0.625l-1.890625 0q0 -0.609375 0.375 -1.125q0.390625 -0.53125 1.078125 -0.828125q0.6875 -0.296875 1.546875 -0.296875q1.296875 0 2.0625 0.65625q0.765625 0.65625 0.765625 1.84375l0 3.046875q0.015625 1.0 0.28125 1.515625l0 0.109375l-1.90625 0zm-1.546875 -1.3125q0.40625 0 0.75 -0.171875q0.359375 -0.1875 0.53125 -0.5l0 -1.21875l-0.703125 0q-1.40625 0 -1.5 0.984375l0 0.109375q0 0.34375 0.234375 0.578125q0.25 0.21875 0.6875 0.21875zm10.73941 -1.25l0.921875 -4.484375l1.828125 0l-1.796875 7.046875l-1.578125 0l-1.34375 -4.4375l-1.328125 4.4375l-1.5625 0l-1.796875 -7.046875l1.8125 0l0.921875 4.484375l1.28125 -4.484375l1.359375 0l1.28125 4.484375zm7.747467 2.5625q-0.125 -0.25 -0.1875 -0.625q-0.671875 0.75 -1.765625 0.75q-1.046875 0 -1.734375 -0.59375q-0.671875 -0.59375 -0.671875 -1.515625q0 -1.109375 0.828125 -1.703125q0.84375 -0.609375 2.40625 -0.609375l0.859375 0l0 -0.40625q0 -0.484375 -0.25 -0.78125q-0.25 -0.296875 -0.78125 -0.296875q-0.484375 0 -0.75 0.234375q-0.265625 0.21875 -0.265625 0.625l-1.890625 0q0 -0.609375 0.375 -1.125q0.390625 -0.53125 1.078125 -0.828125q0.6875 -0.296875 1.546875 -0.296875q1.296875 0 2.0625 0.65625q0.765625 0.65625 0.765625 1.84375l0 3.046875q0.015625 1.0 0.28125 1.515625l0 0.109375l-1.90625 0zm-1.546875 -1.3125q0.40625 0 0.75 -0.171875q0.359375 -0.1875 0.53125 -0.5l0 -1.21875l-0.703125 0q-1.40625 0 -1.5 0.984375l0 0.109375q0 0.34375 0.234375 0.578125q0.25 0.21875 0.6875 0.21875zm7.1769104 -1.515625l-0.671875 0.6875l0 2.140625l-1.890625 0l0 -10.0l1.890625 0l0 5.546875l0.359375 -0.46875l1.796875 -2.125l2.265625 0l-2.546875 2.9375l2.765625 4.109375l-2.15625 0l-1.8125 -2.828125zm7.6769104 2.953125q-1.546875 0 -2.53125 -0.9375q-0.96875 -0.953125 -0.96875 -2.53125l0 -0.1875q0 -1.0625 0.40625 -1.890625q0.40625 -0.84375 1.15625 -1.296875q0.765625 -0.453125 1.71875 -0.453125q1.453125 0 2.28125 0.921875q0.828125 0.90625 0.828125 2.578125l0 0.765625l-4.484375 0q0.09375 0.6875 0.546875 1.109375q0.46875 0.40625 1.171875 0.40625q1.078125 0 1.6875 -0.78125l0.921875 1.03125q-0.421875 0.59375 -1.140625 0.9375q-0.71875 0.328125 -1.59375 0.328125zm-0.21875 -5.78125q-0.5625 0 -0.90625 0.390625q-0.34375 0.375 -0.453125 1.078125l2.625 0l0 -0.15625q-0.015625 -0.625 -0.34375 -0.96875q-0.328125 -0.34375 -0.921875 -0.34375z" fill-rule="nonzero"/><path fill="#a4c2f4" d="m315.6614 332.5013l140.72443 0l0 23.937012l-140.72443 0z" fill-rule="evenodd"/><path stroke="#1c4587" stroke-width="2.0" stroke-linejoin="round" stroke-linecap="butt" d="m315.6614 332.5013l140.72443 0l0 23.937012l-140.72443 0z" fill-rule="evenodd"/><path fill="#1c4587" d="m329.33328 343.98856q-0.375 -0.046875 -0.671875 -0.046875q-1.0625 0 -1.390625 0.71875l0 4.609375l-1.890625 0l0 -7.046875l1.78125 0l0.046875 0.84375q0.578125 -0.96875 1.578125 -0.96875q0.3125 0 0.578125 0.078125l-0.03125 1.8125zm4.0345764 5.40625q-1.546875 0 -2.53125 -0.9375q-0.96875 -0.953125 -0.96875 -2.53125l0 -0.1875q0 -1.0625 0.40625 -1.890625q0.40625 -0.84375 1.15625 -1.296875q0.765625 -0.453125 1.71875 -0.453125q1.453125 0 2.28125 0.921875q0.828125 0.90625 0.828125 2.578125l0 0.765625l-4.484375 0q0.09375 0.6875 0.546875 1.109375q0.46875 0.40625 1.171875 0.40625q1.078125 0 1.6875 -0.78125l0.921875 1.03125q-0.421875 0.59375 -1.140625 0.9375q-0.71875 0.328125 -1.59375 0.328125zm-0.21875 -5.78125q-0.5625 0 -0.90625 0.390625q-0.34375 0.375 -0.453125 1.078125l2.625 0l0 -0.15625q-0.015625 -0.625 -0.34375 -0.96875q-0.328125 -0.34375 -0.921875 -0.34375zm8.251099 5.65625q-0.125 -0.25 -0.1875 -0.625q-0.671875 0.75 -1.765625 0.75q-1.046875 0 -1.734375 -0.59375q-0.671875 -0.59375 -0.671875 -1.515625q0 -1.109375 0.828125 -1.703125q0.84375 -0.609375 2.40625 -0.609375l0.859375 0l0 -0.40625q0 -0.484375 -0.25 -0.78125q-0.25 -0.296875 -0.78125 -0.296875q-0.484375 0 -0.75 0.234375q-0.265625 0.21875 -0.265625 0.625l-1.890625 0q0 -0.609375 0.375 -1.125q0.390625 -0.53125 1.078125 -0.828125q0.6875 -0.296875 1.546875 -0.296875q1.296875 0 2.0625 0.65625q0.765625 0.65625 0.765625 1.84375l0 3.046875q0.015625 1.0 0.28125 1.515625l0 0.109375l-1.90625 0zm-1.546875 -1.3125q0.40625 0 0.75 -0.171875q0.359375 -0.1875 0.53125 -0.5l0 -1.21875l-0.703125 0q-1.40625 0 -1.5 0.984375l0 0.109375q0 0.34375 0.234375 0.578125q0.25 0.21875 0.6875 0.21875zm4.317505 -2.265625q0 -1.640625 0.734375 -2.609375q0.75 -0.984375 2.03125 -0.984375q1.03125 0 1.703125 0.765625l0 -3.59375l1.890625 0l0 10.0l-1.703125 0l-0.09375 -0.75q-0.703125 0.875 -1.8125 0.875q-1.234375 0 -2.0 -0.96875q-0.75 -0.984375 -0.75 -2.734375zm1.890625 0.140625q0 0.984375 0.34375 1.515625q0.34375 0.53125 1.0 0.53125q0.875 0 1.234375 -0.734375l0 -2.78125q-0.359375 -0.734375 -1.21875 -0.734375q-1.359375 0 -1.359375 2.203125zm8.541351 0.78125l1.3125 -4.390625l2.015625 0l-2.828125 8.140625l-0.15625 0.375q-0.640625 1.375 -2.09375 1.375q-0.40625 0 -0.828125 -0.125l0 -1.421875l0.28125 0q0.546875 0 0.796875 -0.171875q0.265625 -0.15625 0.421875 -0.53125l0.21875 -0.578125l-2.46875 -7.0625l2.03125 0l1.296875 4.390625z" fill-rule="nonzero"/><path fill="#a4c2f4" d="m315.6614 368.25198l140.72443 0l0 23.936981l-140.72443 0z" fill-rule="evenodd"/><path stroke="#1c4587" stroke-width="2.0" stroke-linejoin="round" stroke-linecap="butt" d="m315.6614 368.25198l140.72443 0l0 23.936981l-140.72443 0z" fill-rule="evenodd"/><path fill="#1c4587" d="m327.14578 377.9736l0.0625 0.796875q0.75 -0.921875 2.015625 -0.921875q1.359375 0 1.875 1.078125q0.734375 -1.078125 2.109375 -1.078125q1.15625 0 1.703125 0.671875q0.5625 0.65625 0.5625 2.0l0 4.5l-1.890625 0l0 -4.484375q0 -0.609375 -0.234375 -0.875q-0.234375 -0.28125 -0.8125 -0.28125q-0.859375 0 -1.171875 0.8125l0 4.828125l-1.875 0l0 -4.484375q0 -0.609375 -0.25 -0.875q-0.234375 -0.28125 -0.8125 -0.28125q-0.796875 0 -1.15625 0.65625l0 4.984375l-1.890625 0l0 -7.046875l1.765625 0zm13.022858 7.171875q-1.546875 0 -2.53125 -0.9375q-0.96875 -0.953125 -0.96875 -2.53125l0 -0.1875q0 -1.0625 0.40625 -1.890625q0.40625 -0.84375 1.15625 -1.296875q0.765625 -0.453125 1.71875 -0.453125q1.453125 0 2.28125 0.921875q0.828125 0.90625 0.828125 2.578125l0 0.765625l-4.484375 0q0.09375 0.6875 0.546875 1.109375q0.46875 0.40625 1.171875 0.40625q1.078125 0 1.6875 -0.78125l0.921875 1.03125q-0.421875 0.59375 -1.140625 0.9375q-0.71875 0.328125 -1.59375 0.328125zm-0.21875 -5.78125q-0.5625 0 -0.90625 0.390625q-0.34375 0.375 -0.453125 1.078125l2.625 0l0 -0.15625q-0.015625 -0.625 -0.34375 -0.96875q-0.328125 -0.34375 -0.921875 -0.34375zm7.9854736 3.703125q0 -0.34375 -0.34375 -0.53125q-0.328125 -0.203125 -1.09375 -0.359375q-2.515625 -0.53125 -2.515625 -2.140625q0 -0.9375 0.78125 -1.5625q0.78125 -0.625 2.03125 -0.625q1.34375 0 2.140625 0.640625q0.8125 0.625 0.8125 1.625l-1.875 0q0 -0.390625 -0.265625 -0.65625q-0.265625 -0.265625 -0.8125 -0.265625q-0.46875 0 -0.734375 0.21875q-0.265625 0.203125 -0.265625 0.546875q0 0.3125 0.296875 0.5q0.296875 0.1875 1.0 0.328125q0.703125 0.140625 1.1875 0.3125q1.484375 0.546875 1.484375 1.890625q0 0.96875 -0.828125 1.5625q-0.8125 0.59375 -2.125 0.59375q-0.890625 0 -1.578125 -0.3125q-0.6875 -0.3125 -1.078125 -0.859375q-0.390625 -0.546875 -0.390625 -1.1875l1.78125 0q0.03125 0.5 0.375 0.765625q0.34375 0.265625 0.921875 0.265625q0.546875 0 0.8125 -0.203125q0.28125 -0.203125 0.28125 -0.546875zm6.852783 0q0 -0.34375 -0.34375 -0.53125q-0.328125 -0.203125 -1.09375 -0.359375q-2.515625 -0.53125 -2.515625 -2.140625q0 -0.9375 0.78125 -1.5625q0.78125 -0.625 2.03125 -0.625q1.34375 0 2.140625 0.640625q0.8125 0.625 0.8125 1.625l-1.875 0q0 -0.390625 -0.265625 -0.65625q-0.265625 -0.265625 -0.8125 -0.265625q-0.46875 0 -0.734375 0.21875q-0.265625 0.203125 -0.265625 0.546875q0 0.3125 0.296875 0.5q0.296875 0.1875 1.0 0.328125q0.703125 0.140625 1.1875 0.3125q1.484375 0.546875 1.484375 1.890625q0 0.96875 -0.828125 1.5625q-0.8125 0.59375 -2.125 0.59375q-0.890625 0 -1.578125 -0.3125q-0.6875 -0.3125 -1.078125 -0.859375q-0.390625 -0.546875 -0.390625 -1.1875l1.78125 0q0.03125 0.5 0.375 0.765625q0.34375 0.265625 0.921875 0.265625q0.546875 0 0.8125 -0.203125q0.28125 -0.203125 0.28125 -0.546875zm7.1184387 1.953125q-0.125 -0.25 -0.1875 -0.625q-0.671875 0.75 -1.765625 0.75q-1.046875 0 -1.734375 -0.59375q-0.671875 -0.59375 -0.671875 -1.515625q0 -1.109375 0.828125 -1.703125q0.84375 -0.609375 2.40625 -0.609375l0.859375 0l0 -0.40625q0 -0.484375 -0.25 -0.78125q-0.25 -0.296875 -0.78125 -0.296875q-0.484375 0 -0.75 0.234375q-0.265625 0.21875 -0.265625 0.625l-1.890625 0q0 -0.609375 0.375 -1.125q0.390625 -0.53125 1.078125 -0.828125q0.6875 -0.296875 1.546875 -0.296875q1.296875 0 2.0625 0.65625q0.765625 0.65625 0.765625 1.84375l0 3.046875q0.015625 1.0 0.28125 1.515625l0 0.109375l-1.90625 0zm-1.546875 -1.3125q0.40625 0 0.75 -0.171875q0.359375 -0.1875 0.53125 -0.5l0 -1.21875l-0.703125 0q-1.40625 0 -1.5 0.984375l0 0.109375q0 0.34375 0.234375 0.578125q0.25 0.21875 0.6875 0.21875zm4.348755 -2.265625q0 -1.609375 0.765625 -2.59375q0.765625 -1.0 2.078125 -1.0q1.15625 0 1.8125 0.796875l0.078125 -0.671875l1.703125 0l0 6.8125q0 0.921875 -0.421875 1.609375q-0.421875 0.6875 -1.1875 1.03125q-0.765625 0.359375 -1.78125 0.359375q-0.765625 0 -1.515625 -0.3125q-0.734375 -0.296875 -1.109375 -0.78125l0.84375 -1.15625q0.703125 0.796875 1.703125 0.796875q0.75 0 1.15625 -0.40625q0.421875 -0.40625 0.421875 -1.140625l0 -0.375q-0.65625 0.734375 -1.71875 0.734375q-1.265625 0 -2.046875 -0.984375q-0.78125 -1.0 -0.78125 -2.640625l0 -0.078125zm1.875 0.140625q0 0.953125 0.375 1.5q0.390625 0.546875 1.0625 0.546875q0.859375 0 1.234375 -0.640625l0 -2.96875q-0.375 -0.640625 -1.21875 -0.640625q-0.671875 0 -1.0625 0.5625q-0.390625 0.546875 -0.390625 1.640625zm9.248352 3.5625q-1.546875 0 -2.53125 -0.9375q-0.96875 -0.953125 -0.96875 -2.53125l0 -0.1875q0 -1.0625 0.40625 -1.890625q0.40625 -0.84375 1.15625 -1.296875q0.765625 -0.453125 1.71875 -0.453125q1.453125 0 2.28125 0.921875q0.828125 0.90625 0.828125 2.578125l0 0.765625l-4.484375 0q0.09375 0.6875 0.546875 1.109375q0.46875 0.40625 1.171875 0.40625q1.078125 0 1.6875 -0.78125l0.921875 1.03125q-0.421875 0.59375 -1.140625 0.9375q-0.71875 0.328125 -1.59375 0.328125zm-0.21875 -5.78125q-0.5625 0 -0.90625 0.390625q-0.34375 0.375 -0.453125 1.078125l2.625 0l0 -0.15625q-0.015625 -0.625 -0.34375 -0.96875q-0.328125 -0.34375 -0.921875 -0.34375z" fill-rule="nonzero"/><path fill="#674ea7" d="m61.68504 311.24933l146.4567 0l0 30.141754l-146.4567 0z" fill-rule="evenodd"/><path stroke="#20124d" stroke-width="2.0" stroke-linejoin="round" stroke-linecap="butt" d="m61.68504 311.24933l146.4567 0l0 30.141754l-146.4567 0z" fill-rule="evenodd"/><path fill="#ffffff" d="m89.07517 327.96396q-0.109375 1.53125 -1.125 2.40625q-1.015625 0.875 -2.6875 0.875q-1.8125 0 -2.859375 -1.21875q-1.046875 -1.234375 -1.046875 -3.375l0 -0.578125q0 -1.359375 0.46875 -2.40625q0.484375 -1.046875 1.375 -1.59375q0.90625 -0.5625 2.09375 -0.5625q1.640625 0 2.640625 0.890625q1.0 0.875 1.15625 2.453125l-1.953125 0q-0.0625 -0.90625 -0.515625 -1.3125q-0.4375 -0.421875 -1.328125 -0.421875q-0.984375 0 -1.46875 0.703125q-0.484375 0.6875 -0.5 2.15625l0 0.71875q0 1.53125 0.46875 2.25q0.46875 0.703125 1.46875 0.703125q0.90625 0 1.34375 -0.40625q0.453125 -0.421875 0.515625 -1.28125l1.953125 0zm5.3768005 2.4375q-0.6875 0.84375 -1.921875 0.84375q-1.140625 0 -1.734375 -0.640625q-0.59375 -0.65625 -0.609375 -1.90625l0 -4.625l1.890625 0l0 4.546875q0 1.109375 1.0 1.109375q0.953125 0 1.3125 -0.671875l0 -4.984375l1.890625 0l0 7.046875l-1.78125 0l-0.046875 -0.71875zm7.051773 -1.234375q0 -0.34375 -0.34375 -0.53125q-0.328125 -0.203125 -1.09375 -0.359375q-2.515625 -0.53125 -2.515625 -2.140625q0 -0.9375 0.78125 -1.5625q0.78125 -0.625 2.03125 -0.625q1.34375 0 2.140625 0.640625q0.8125 0.625 0.8125 1.625l-1.875 0q0 -0.390625 -0.265625 -0.65625q-0.265625 -0.265625 -0.8125 -0.265625q-0.46875 0 -0.734375 0.21875q-0.265625 0.203125 -0.265625 0.546875q0 0.3125 0.296875 0.5q0.296875 0.1875 1.0 0.328125q0.703125 0.140625 1.1875 0.3125q1.484375 0.546875 1.484375 1.890625q0 0.96875 -0.828125 1.5625q-0.8125 0.59375 -2.125 0.59375q-0.890625 0 -1.578125 -0.3125q-0.6875 -0.3125 -1.078125 -0.859375q-0.390625 -0.546875 -0.390625 -1.1875l1.78125 0q0.03125 0.5 0.375 0.765625q0.34375 0.265625 0.921875 0.265625q0.546875 0 0.8125 -0.203125q0.28125 -0.203125 0.28125 -0.546875zm5.2902985 -6.8125l0 1.71875l1.203125 0l0 1.390625l-1.203125 0l0 3.515625q0 0.390625 0.15625 0.5625q0.15625 0.15625 0.578125 0.15625q0.3125 0 0.546875 -0.046875l0 1.4375q-0.546875 0.15625 -1.140625 0.15625q-1.984375 0 -2.015625 -2.0l0 -3.78125l-1.03125 0l0 -1.390625l1.03125 0l0 -1.71875l1.875 0zm1.761261 5.1875q0 -1.0625 0.40625 -1.875q0.40625 -0.828125 1.15625 -1.265625q0.765625 -0.453125 1.765625 -0.453125q1.4375 0 2.328125 0.875q0.90625 0.875 1.015625 2.359375l0 0.484375q0 1.625 -0.90625 2.609375q-0.890625 0.96875 -2.421875 0.96875q-1.515625 0 -2.4375 -0.96875q-0.90625 -0.984375 -0.90625 -2.65625l0 -0.078125zm1.890625 0.125q0 1.0 0.375 1.53125q0.375 0.53125 1.078125 0.53125q0.6875 0 1.0625 -0.515625q0.390625 -0.53125 0.390625 -1.671875q0 -0.984375 -0.390625 -1.53125q-0.375 -0.546875 -1.078125 -0.546875q-0.6875 0 -1.0625 0.546875q-0.375 0.53125 -0.375 1.65625zm7.7079926 -3.59375l0.0625 0.796875q0.75 -0.921875 2.015625 -0.921875q1.359375 0 1.875 1.078125q0.734375 -1.078125 2.109375 -1.078125q1.15625 0 1.703125 0.671875q0.5625 0.65625 0.5625 2.0l0 4.5l-1.890625 0l0 -4.484375q0 -0.609375 -0.234375 -0.875q-0.234375 -0.28125 -0.8125 -0.28125q-0.859375 0 -1.171875 0.8125l0 4.828125l-1.875 0l0 -4.484375q0 -0.609375 -0.25 -0.875q-0.234375 -0.28125 -0.8125 -0.28125q-0.796875 0 -1.15625 0.65625l0 4.984375l-1.890625 0l0 -7.046875l1.765625 0zm20.654366 3.890625q-0.109375 1.53125 -1.125 2.40625q-1.015625 0.875 -2.6875 0.875q-1.8125 0 -2.859375 -1.21875q-1.046875 -1.234375 -1.046875 -3.375l0 -0.578125q0 -1.359375 0.46875 -2.40625q0.484375 -1.046875 1.375 -1.59375q0.90625 -0.5625 2.09375 -0.5625q1.640625 0 2.640625 0.890625q1.0 0.875 1.15625 2.453125l-1.953125 0q-0.0625 -0.90625 -0.515625 -1.3125q-0.4375 -0.421875 -1.328125 -0.421875q-0.984375 0 -1.46875 0.703125q-0.484375 0.6875 -0.5 2.15625l0 0.71875q0 1.53125 0.46875 2.25q0.46875 0.703125 1.46875 0.703125q0.90625 0 1.34375 -0.40625q0.453125 -0.421875 0.515625 -1.28125l1.953125 0zm5.2361755 3.15625q-0.125 -0.25 -0.1875 -0.625q-0.671875 0.75 -1.765625 0.75q-1.046875 0 -1.734375 -0.59375q-0.671875 -0.59375 -0.671875 -1.515625q0 -1.109375 0.828125 -1.703125q0.84375 -0.609375 2.40625 -0.609375l0.859375 0l0 -0.40625q0 -0.484375 -0.25 -0.78125q-0.25 -0.296875 -0.78125 -0.296875q-0.484375 0 -0.75 0.234375q-0.265625 0.21875 -0.265625 0.625l-1.890625 0q0 -0.609375 0.375 -1.125q0.390625 -0.53125 1.078125 -0.828125q0.6875 -0.296875 1.546875 -0.296875q1.296875 0 2.0625 0.65625q0.765625 0.65625 0.765625 1.84375l0 3.046875q0.015625 1.0 0.28125 1.515625l0 0.109375l-1.90625 0zm-1.546875 -1.3125q0.40625 0 0.75 -0.171875q0.359375 -0.1875 0.53125 -0.5l0 -1.21875l-0.703125 0q-1.40625 0 -1.5 0.984375l0 0.109375q0 0.34375 0.234375 0.578125q0.25 0.21875 0.6875 0.21875zm6.59877 1.3125l-1.890625 0l0 -10.0l1.890625 0l0 10.0zm3.533783 0l-1.890625 0l0 -10.0l1.890625 0l0 10.0zm7.893158 -3.453125q0 1.6875 -0.71875 2.640625q-0.71875 0.9375 -2.015625 0.9375q-1.140625 0 -1.828125 -0.875l-0.078125 0.75l-1.703125 0l0 -10.0l1.890625 0l0 3.59375q0.640625 -0.765625 1.703125 -0.765625q1.296875 0 2.015625 0.953125q0.734375 0.9375 0.734375 2.65625l0 0.109375zm-1.875 -0.140625q0 -1.0625 -0.34375 -1.546875q-0.328125 -0.5 -1.0 -0.5q-0.90625 0 -1.234375 0.734375l0 2.78125q0.34375 0.734375 1.25 0.734375q0.90625 0 1.1875 -0.890625q0.140625 -0.4375 0.140625 -1.3125zm7.112961 3.59375q-0.125 -0.25 -0.1875 -0.625q-0.671875 0.75 -1.765625 0.75q-1.046875 0 -1.734375 -0.59375q-0.671875 -0.59375 -0.671875 -1.515625q0 -1.109375 0.828125 -1.703125q0.84375 -0.609375 2.40625 -0.609375l0.859375 0l0 -0.40625q0 -0.484375 -0.25 -0.78125q-0.25 -0.296875 -0.78125 -0.296875q-0.484375 0 -0.75 0.234375q-0.265625 0.21875 -0.265625 0.625l-1.890625 0q0 -0.609375 0.375 -1.125q0.390625 -0.53125 1.078125 -0.828125q0.6875 -0.296875 1.546875 -0.296875q1.296875 0 2.0625 0.65625q0.765625 0.65625 0.765625 1.84375l0 3.046875q0.015625 1.0 0.28125 1.515625l0 0.109375l-1.90625 0zm-1.546875 -1.3125q0.40625 0 0.75 -0.171875q0.359375 -0.1875 0.53125 -0.5l0 -1.21875l-0.703125 0q-1.40625 0 -1.5 0.984375l0 0.109375q0 0.34375 0.234375 0.578125q0.25 0.21875 0.6875 0.21875zm7.551895 -0.078125q0.515625 0 0.84375 -0.28125q0.328125 -0.28125 0.328125 -0.765625l1.765625 0q0 0.71875 -0.390625 1.3125q-0.375 0.59375 -1.046875 0.921875q-0.671875 0.328125 -1.46875 0.328125q-1.515625 0 -2.390625 -0.953125q-0.875 -0.96875 -0.875 -2.65625l0 -0.125q0 -1.625 0.859375 -2.59375q0.875 -0.96875 2.390625 -0.96875q1.3125 0 2.109375 0.75q0.8125 0.75 0.8125 2.0l-1.765625 0q0 -0.546875 -0.328125 -0.890625q-0.328125 -0.34375 -0.859375 -0.34375q-0.65625 0 -1.0 0.484375q-0.328125 0.484375 -0.328125 1.546875l0 0.203125q0 1.078125 0.328125 1.5625q0.328125 0.46875 1.015625 0.46875zm6.575409 -1.4375l-0.671875 0.6875l0 2.140625l-1.890625 0l0 -10.0l1.890625 0l0 5.546875l0.359375 -0.46875l1.796875 -2.125l2.265625 0l-2.546875 2.9375l2.765625 4.109375l-2.15625 0l-1.8125 -2.828125zm8.369614 0.875q0 -0.34375 -0.34375 -0.53125q-0.328125 -0.203125 -1.09375 -0.359375q-2.515625 -0.53125 -2.515625 -2.140625q0 -0.9375 0.78125 -1.5625q0.78125 -0.625 2.03125 -0.625q1.34375 0 2.140625 0.640625q0.8125 0.625 0.8125 1.625l-1.875 0q0 -0.390625 -0.265625 -0.65625q-0.265625 -0.265625 -0.8125 -0.265625q-0.46875 0 -0.734375 0.21875q-0.265625 0.203125 -0.265625 0.546875q0 0.3125 0.296875 0.5q0.296875 0.1875 1.0 0.328125q0.703125 0.140625 1.1875 0.3125q1.484375 0.546875 1.484375 1.890625q0 0.96875 -0.828125 1.5625q-0.8125 0.59375 -2.125 0.59375q-0.890625 0 -1.578125 -0.3125q-0.6875 -0.3125 -1.078125 -0.859375q-0.390625 -0.546875 -0.390625 -1.1875l1.78125 0q0.03125 0.5 0.375 0.765625q0.34375 0.265625 0.921875 0.265625q0.546875 0 0.8125 -0.203125q0.28125 -0.203125 0.28125 -0.546875z" fill-rule="nonzero"/><path fill="#000000" fill-opacity="0.0" d="m134.91339 235.00787l0 76.25198" fill-rule="evenodd"/><path stroke="#434343" stroke-width="2.0" stroke-linejoin="round" stroke-linecap="butt" d="m134.91339 247.00787l0 52.251984" fill-rule="evenodd"/><path fill="#434343" stroke="#434343" stroke-width="2.0" stroke-linecap="butt" d="m138.21686 247.00787l-3.3034668 -9.076202l-3.3034668 9.076202z" fill-rule="evenodd"/><path fill="#434343" stroke="#434343" stroke-width="2.0" stroke-linecap="butt" d="m131.60992 299.25986l3.3034668 9.076172l3.3034668 -9.076172z" fill-rule="evenodd"/><path fill="#000000" fill-opacity="0.0" d="m68.35433 245.66667l0 32.791275l-39.17059 0l0 47.870148l32.493423 0" fill-rule="evenodd"/><path stroke="#434343" stroke-width="2.0" stroke-linejoin="round" stroke-linecap="butt" stroke-dasharray="8.0,6.0" d="m68.35433 256.92322l0 21.534729l-39.17059 0l0 47.870148l21.23687 0" fill-rule="evenodd"/><path fill="#434343" stroke="#434343" stroke-width="2.0" stroke-linecap="butt" d="m68.35433 256.92322l3.330574 -4.756546l-3.330574 -4.7565613l-3.330574 4.7565613z" fill-rule="evenodd"/><path fill="#434343" stroke="#434343" stroke-width="2.0" stroke-linecap="butt" d="m50.420612 326.3281l4.7565536 3.3305664l4.7565536 -3.3305664l-4.7565536 -3.330597z" fill-rule="evenodd"/><path fill="#434343" d="m104.708664 117.84127l0 0c0 -1.6699371 1.3537445 -3.0236816 3.0236816 -3.0236816l54.362076 0c0.8019409 0 1.5710297 0.31856537 2.1380768 0.8856125c0.5670471 0.5670471 0.88560486 1.3361359 0.88560486 2.1380692l0 12.094368c0 1.6699371 -1.3537445 3.0236816 -3.0236816 3.0236816l-54.362076 0c-1.6699371 0 -3.0236816 -1.3537445 -3.0236816 -3.0236816z" fill-rule="evenodd"/><path fill="#ffffff" d="m122.79522 124.70532l-3.375 0l0 2.296875l3.96875 0l0 1.40625l-5.71875 0l0 -8.53125l5.703125 0l0 1.421875l-3.953125 0l0 2.03125l3.375 0l0 1.375zm3.7382812 1.640625l1.171875 -4.28125l1.7656326 0l-2.1406326 6.34375l-1.609375 0l-2.140625 -6.34375l1.765625 0l1.1875 4.28125zm6.519539 2.1875q-1.390625 0 -2.265625 -0.859375q-0.875 -0.859375 -0.875 -2.28125l0 -0.171875q0 -0.953125 0.359375 -1.703125q0.375 -0.75 1.046875 -1.15625q0.6875 -0.40625 1.546875 -0.40625q1.3125 0 2.046875 0.828125q0.75 0.8125 0.75 2.3125l0 0.6875l-4.03125 0q0.078125 0.625 0.484375 1.0q0.421875 0.375 1.0625 0.375q0.96875 0 1.515625 -0.703125l0.84375 0.921875q-0.390625 0.546875 -1.046875 0.859375q-0.640625 0.296875 -1.4375 0.296875zm-0.1875 -5.21875q-0.5 0 -0.8125 0.34375q-0.3125 0.34375 -0.40625 0.96875l2.359375 0l0 -0.125q-0.015625 -0.5625 -0.3125 -0.875q-0.28125 -0.3125 -0.828125 -0.3125zm5.314453 -1.25l0.0625 0.734375q0.671875 -0.84375 1.8125 -0.84375q1.015625 0 1.5 0.59375q0.5 0.578125 0.515625 1.765625l0 4.09375l-1.703125 0l0 -4.0625q0 -0.53125 -0.234375 -0.765625q-0.234375 -0.25 -0.78125 -0.25q-0.703125 0 -1.0625 0.609375l0 4.46875l-1.703125 0l0 -6.34375l1.59375 0zm7.189453 -1.5625l0 1.5625l1.09375 0l0 1.25l-1.09375 0l0 3.15625q0 0.359375 0.140625 0.515625q0.140625 0.140625 0.515625 0.140625q0.28125 0 0.5 -0.03125l0 1.28125q-0.5 0.15625 -1.03125 0.15625q-1.78125 0 -1.8125 -1.8125l0 -3.40625l-0.921875 0l0 -1.25l0.921875 0l0 -1.5625l1.6875 0zm5.4609375 6.15625q0 -0.3125 -0.3125 -0.484375q-0.296875 -0.1875 -0.96875 -0.328125q-2.265625 -0.46875 -2.265625 -1.921875q0 -0.84375 0.6875 -1.40625q0.703125 -0.5625 1.84375 -0.5625q1.203125 0 1.921875 0.5625q0.734375 0.5625 0.734375 1.484375l-1.703125 0q0 -0.375 -0.234375 -0.609375q-0.234375 -0.234375 -0.734375 -0.234375q-0.421875 0 -0.65625 0.203125q-0.234375 0.1875 -0.234375 0.484375q0 0.28125 0.265625 0.453125q0.265625 0.171875 0.890625 0.296875q0.640625 0.125 1.078125 0.28125q1.34375 0.5 1.34375 1.703125q0 0.875 -0.75 1.421875q-0.734375 0.53125 -1.921875 0.53125q-0.796875 0 -1.421875 -0.28125q-0.609375 -0.296875 -0.96875 -0.78125q-0.34375 -0.5 -0.34375 -1.078125l1.609375 0q0.015625 0.453125 0.328125 0.703125q0.3125 0.234375 0.828125 0.234375q0.5 0 0.734375 -0.1875q0.25 -0.1875 0.25 -0.484375z" fill-rule="nonzero"/></g></svg>